<svg width="72" height="72" viewBox="0 0 72 72" fill="none" xmlns="http://www.w3.org/2000/svg">
<path d="M72 36C72 16.1177 55.8823 0 36 0C16.1177 0 0 16.1177 0 36C0 55.8823 16.1177 72 36 72C55.8823 72 72 55.8823 72 36Z" fill="#BEA064"/>
<path d="M35.9968 53C35.6681 53.0008 35.3427 52.9365 35.0391 52.8107C34.7354 52.6848 34.4596 52.5001 34.2278 52.267L31.3188 49.358C31.0874 49.1254 30.8121 48.941 30.509 48.8153C30.2059 48.6897 29.8811 48.6253 29.553 48.626H25.8738C25.2107 48.626 24.575 48.3626 24.1062 47.8938C23.6374 47.4249 23.3738 46.7891 23.3738 46.126V42.447C23.3745 42.1185 23.3101 41.7931 23.1843 41.4896C23.0585 41.1861 22.8738 40.9106 22.6409 40.679L19.731 37.769C19.2628 37.2993 19 36.6632 19 36C19 35.3369 19.2628 34.7007 19.731 34.231L22.6409 31.321C23.1077 30.8508 23.3706 30.2156 23.3728 29.553V25.876C23.3728 25.213 23.6364 24.5771 24.1052 24.1082C24.5741 23.6394 25.2098 23.376 25.8728 23.376H29.5498C29.8786 23.3769 30.2044 23.3124 30.5081 23.1864C30.8117 23.0604 31.0873 22.8754 31.3188 22.642L34.2278 19.732C34.4597 19.4992 34.7354 19.3146 35.0391 19.189C35.3427 19.0633 35.6682 18.9991 35.9968 19C36.3254 18.9991 36.651 19.0633 36.9546 19.189C37.2582 19.3146 37.534 19.4992 37.7659 19.732L40.6758 22.642C41.1448 23.1089 41.7792 23.3719 42.4409 23.374H46.1208C46.7839 23.374 47.4198 23.6374 47.8887 24.1062C48.3575 24.5751 48.6208 25.211 48.6208 25.874V29.551C48.6228 30.2137 48.8857 30.8489 49.3528 31.319L52.2629 34.229C52.7308 34.6989 52.9934 35.3349 52.9934 35.998C52.9934 36.6611 52.7308 37.2972 52.2629 37.767L49.3528 40.677C49.12 40.9087 48.9355 41.1843 48.8098 41.4877C48.6842 41.7912 48.62 42.1166 48.6208 42.445V46.122C48.6208 46.7851 48.3575 47.4209 47.8887 47.8898C47.4198 48.3586 46.7839 48.622 46.1208 48.622H42.4438C41.7806 48.6235 41.1448 48.887 40.6748 49.355L37.7649 52.264C37.5335 52.4975 37.2581 52.6828 36.9546 52.8091C36.6511 52.9354 36.3255 53.0003 35.9968 53ZM40.3718 37.75C39.6759 37.7508 39.0087 38.0276 38.5166 38.5197C38.0245 39.0118 37.7476 39.6791 37.7468 40.375C37.7479 41.0708 38.0248 41.7377 38.5168 42.2296C39.0089 42.7215 39.6761 42.9982 40.3718 42.999C41.0676 42.9982 41.7347 42.7215 42.2268 42.2296C42.7189 41.7377 42.9958 41.0708 42.9968 40.375C42.9963 39.6791 42.7197 39.0117 42.2278 38.5194C41.7359 38.0271 41.0688 37.7501 40.3728 37.749L40.3718 37.75ZM41.2178 29.637C40.9289 29.6368 40.6509 29.7465 40.4399 29.944L29.9399 40.444C29.7372 40.6599 29.6269 40.9463 29.6323 41.2424C29.6377 41.5385 29.7585 41.8207 29.969 42.029C30.0746 42.1352 30.2 42.2194 30.3384 42.2768C30.4767 42.3341 30.6251 42.3634 30.7749 42.363C31.064 42.3636 31.3425 42.2542 31.554 42.057L42.054 31.557C42.2568 31.3413 42.3673 31.0549 42.3621 30.7588C42.3568 30.4628 42.2362 30.1804 42.0259 29.972C41.9203 29.8654 41.7945 29.7807 41.656 29.723C41.5175 29.6654 41.3691 29.6358 41.219 29.636L41.2178 29.637ZM31.6179 29C30.9221 29.0008 30.255 29.2775 29.7629 29.7694C29.2709 30.2613 28.994 30.9282 28.9929 31.624C28.9937 32.32 29.2706 32.9872 29.7627 33.4793C30.2548 33.9714 30.922 34.2482 31.6179 34.249C32.3139 34.2482 32.981 33.9714 33.4731 33.4793C33.9653 32.9872 34.2421 32.32 34.2429 31.624C34.2421 30.929 33.9659 30.2627 33.4749 29.7708C32.9838 29.279 32.3178 29.0019 31.6228 29H31.6179Z" fill="white"/>
</svg>
