<svg width="72" height="72" viewBox="0 0 72 72" fill="none" xmlns="http://www.w3.org/2000/svg">
<path d="M72 36C72 16.1177 55.8823 0 36 0C16.1177 0 0 16.1177 0 36C0 55.8823 16.1177 72 36 72C55.8823 72 72 55.8823 72 36Z" fill="#30BFBF"/>
<path d="M35.5371 16.2167C30.2641 21.3037 27.064 27.6957 27.522 35.6377C23.9842 39.3263 22.0061 44.2377 22 49.3487C21.9987 49.4945 22.0382 49.6378 22.114 49.7623C22.1899 49.8868 22.2991 49.9876 22.4293 50.0533C22.5595 50.119 22.7055 50.1469 22.8507 50.1339C22.9959 50.1209 23.1346 50.0675 23.251 49.9797L28.122 46.3297L28.185 47.4447C28.196 47.6442 28.2832 47.8319 28.4285 47.969C28.5738 48.1061 28.7662 48.1823 28.966 48.1817H43.183C43.3826 48.181 43.5743 48.1043 43.7192 47.9672C43.8641 47.8301 43.9513 47.6429 43.963 47.4437L44.026 46.3277L48.897 49.9787C49.0167 50.0592 49.1563 50.1049 49.3004 50.1107C49.4444 50.1165 49.5873 50.0823 49.713 50.0117C49.7811 49.9771 49.8429 49.9315 49.896 49.8767C50.0541 49.7144 50.1434 49.4973 50.1451 49.2707C50.125 44.1845 48.1484 39.301 44.625 35.6327C45.083 27.6807 41.907 21.2687 36.614 16.2157C36.4682 16.0772 36.2747 16 36.0736 16C35.8724 16 35.6789 16.0772 35.5331 16.2157L35.5371 16.2167ZM39.9851 28.6327C39.9851 29.406 39.7557 30.162 39.3261 30.805C38.8964 31.448 38.2858 31.9491 37.5713 32.2451C36.8569 32.541 36.0707 32.6185 35.3122 32.4676C34.5538 32.3167 33.8571 31.9443 33.3102 31.3975C32.7634 30.8507 32.391 30.154 32.2402 29.3955C32.0893 28.637 32.1667 27.8509 32.4627 27.1364C32.7586 26.422 33.2598 25.8113 33.9028 25.3817C34.5458 24.952 35.3017 24.7227 36.075 24.7227C36.5873 24.7214 37.0947 24.821 37.5685 25.0158C38.0422 25.2107 38.4729 25.497 38.836 25.8583C39.1991 26.2196 39.4875 26.6489 39.6846 27.1217C39.8818 27.5945 39.9839 28.1015 39.9851 28.6137V28.6327Z" fill="white"/>
</svg>
