<svg width="1440" height="400" viewBox="0 0 1440 400" fill="none" xmlns="http://www.w3.org/2000/svg">
<mask id="mask0_8130_65488" style="mask-type:alpha" maskUnits="userSpaceOnUse" x="0" y="0" width="1440" height="400">
<rect width="1440" height="400" fill="#191919"/>
</mask>
<g mask="url(#mask0_8130_65488)">
<g opacity="0.06">
<path fill-rule="evenodd" clip-rule="evenodd" d="M-72.1299 503.291L19.778 253.235L20.7495 253.592L-71.1584 503.648L-72.1299 503.291Z" fill="white"/>
<path fill-rule="evenodd" clip-rule="evenodd" d="M110.459 422.544L31.7988 252.39L32.7383 251.956L111.398 422.11L110.459 422.544Z" fill="white"/>
<path fill-rule="evenodd" clip-rule="evenodd" d="M197.998 349.893L41.5059 246.394L42.0768 245.53L198.569 349.03L197.998 349.893Z" fill="white"/>
<path fill-rule="evenodd" clip-rule="evenodd" d="M203.498 288.268L41.624 234.448L41.9506 233.466L203.824 287.286L203.498 288.268Z" fill="white"/>
<path fill-rule="evenodd" clip-rule="evenodd" d="M125.414 424.918L211.94 305.687L212.778 306.294L126.252 425.526L125.414 424.918Z" fill="white"/>
<path fill-rule="evenodd" clip-rule="evenodd" d="M128.812 428.142L200.847 367.284L201.515 368.075L129.479 428.933L128.812 428.142Z" fill="white"/>
<path fill-rule="evenodd" clip-rule="evenodd" d="M216.396 341.144L218.881 307.196L219.913 307.272L217.429 341.22L216.396 341.144Z" fill="white"/>
<path fill-rule="evenodd" clip-rule="evenodd" d="M390.644 344.161L234.98 298.207L235.274 297.215L390.937 343.169L390.644 344.161Z" fill="white"/>
<path fill-rule="evenodd" clip-rule="evenodd" d="M389.572 349.98L228.527 357.018L228.481 355.984L389.527 348.946L389.572 349.98Z" fill="white"/>
<path fill-rule="evenodd" clip-rule="evenodd" d="M353.039 504.968L398.165 363.794L399.151 364.109L354.025 505.283L353.039 504.968Z" fill="white"/>
<path fill-rule="evenodd" clip-rule="evenodd" d="M339.478 505.464L221.902 369.258L222.686 368.582L340.262 504.788L339.478 505.464Z" fill="white"/>
<path fill-rule="evenodd" clip-rule="evenodd" d="M425.468 568.519L405.182 365.245L406.212 365.143L426.497 568.416L425.468 568.519Z" fill="white"/>
<path fill-rule="evenodd" clip-rule="evenodd" d="M558.402 320.861L360.096 506.746L359.389 505.991L557.695 320.105L558.402 320.861Z" fill="white"/>
<path fill-rule="evenodd" clip-rule="evenodd" d="M584.546 352.464L421.016 353.292L421.011 352.257L584.541 351.429L584.546 352.464Z" fill="white"/>
<path fill-rule="evenodd" clip-rule="evenodd" d="M616.161 276.264L416.2 337.95L415.895 336.961L615.856 275.275L616.161 276.264Z" fill="white"/>
<path fill-rule="evenodd" clip-rule="evenodd" d="M625.968 269.251L229.356 287.053L229.31 286.019L625.921 268.217L625.968 269.251Z" fill="white"/>
<path fill-rule="evenodd" clip-rule="evenodd" d="M957.071 329.825L981.497 263.999L982.468 264.359L958.042 330.185L957.071 329.825Z" fill="white"/>
<path fill-rule="evenodd" clip-rule="evenodd" d="M992.676 233.779L1048.98 80.1855L1049.95 80.5418L993.648 234.136L992.676 233.779Z" fill="white"/>
<path fill-rule="evenodd" clip-rule="evenodd" d="M616.743 547.455L573.688 332.176L574.702 331.973L617.758 547.252L616.743 547.455Z" fill="white"/>
<path fill-rule="evenodd" clip-rule="evenodd" d="M624.143 281.183L583.571 305.609L583.037 304.722L623.609 280.296L624.143 281.183Z" fill="white"/>
<path fill-rule="evenodd" clip-rule="evenodd" d="M652.47 257.208L781.224 114.792L781.991 115.486L653.237 257.902L652.47 257.208Z" fill="white"/>
<path fill-rule="evenodd" clip-rule="evenodd" d="M977.542 237.687L806.975 114.315L807.581 113.477L978.149 236.848L977.542 237.687Z" fill="white"/>
<path fill-rule="evenodd" clip-rule="evenodd" d="M945.547 258.492L990.673 196.806L991.508 197.417L946.382 259.103L945.547 258.492Z" fill="white"/>
<path fill-rule="evenodd" clip-rule="evenodd" d="M833.677 340.448L793.52 121.028L794.538 120.842L834.695 340.262L833.677 340.448Z" fill="white"/>
<path fill-rule="evenodd" clip-rule="evenodd" d="M860.607 305.675L738.891 287.459L739.044 286.436L860.76 304.652L860.607 305.675Z" fill="white"/>
<path fill-rule="evenodd" clip-rule="evenodd" d="M707.185 287.458L585.883 310.642L585.688 309.625L706.99 286.441L707.185 287.458Z" fill="white"/>
<path fill-rule="evenodd" clip-rule="evenodd" d="M820.321 348.695L655.549 278.315L655.955 277.363L820.727 347.743L820.321 348.695Z" fill="white"/>
<path fill-rule="evenodd" clip-rule="evenodd" d="M726.03 344.899L726.858 302.257L727.893 302.277L727.065 344.919L726.03 344.899Z" fill="white"/>
<path fill-rule="evenodd" clip-rule="evenodd" d="M715.225 354.513L585.643 317.253L585.929 316.259L715.511 353.519L715.225 354.513Z" fill="white"/>
<path fill-rule="evenodd" clip-rule="evenodd" d="M707.335 293.612L612.529 345.362L612.033 344.453L706.839 292.703L707.335 293.612Z" fill="white"/>
<path fill-rule="evenodd" clip-rule="evenodd" d="M509.605 407.529L565.081 331.768L565.916 332.379L510.441 408.141L509.605 407.529Z" fill="white"/>
<path fill-rule="evenodd" clip-rule="evenodd" d="M583.613 361.055L516.545 411.563L515.923 410.736L582.991 360.229L583.613 361.055Z" fill="white"/>
<path fill-rule="evenodd" clip-rule="evenodd" d="M645.757 460.624L603.115 365.404L604.06 364.981L646.702 460.201L645.757 460.624Z" fill="white"/>
<path fill-rule="evenodd" clip-rule="evenodd" d="M665.247 458.487L718.239 371.961L719.122 372.501L666.13 459.027L665.247 458.487Z" fill="white"/>
<path fill-rule="evenodd" clip-rule="evenodd" d="M713.665 361.154L612.235 351.632L612.332 350.602L713.762 360.124L713.665 361.154Z" fill="white"/>
<path fill-rule="evenodd" clip-rule="evenodd" d="M589.449 336.836L583.653 323.588L584.602 323.173L590.398 336.421L589.449 336.836Z" fill="white"/>
<path fill-rule="evenodd" clip-rule="evenodd" d="M757.1 468.433L728.948 376.525L729.938 376.222L758.09 468.13L757.1 468.433Z" fill="white"/>
<path fill-rule="evenodd" clip-rule="evenodd" d="M775.032 407.374L740.256 372.598L740.988 371.866L775.764 406.642L775.032 407.374Z" fill="white"/>
<path fill-rule="evenodd" clip-rule="evenodd" d="M849.741 405.009L744.585 366.507L744.941 365.535L850.097 404.037L849.741 405.009Z" fill="white"/>
<path fill-rule="evenodd" clip-rule="evenodd" d="M796.955 401.692L825.935 369.814L826.701 370.511L797.721 402.389L796.955 401.692Z" fill="white"/>
<path fill-rule="evenodd" clip-rule="evenodd" d="M834.7 372.296L818.968 497.324L817.941 497.195L833.673 372.167L834.7 372.296Z" fill="white"/>
<path fill-rule="evenodd" clip-rule="evenodd" d="M863.744 313.52L743.684 353.678L743.355 352.696L863.415 312.538L863.744 313.52Z" fill="white"/>
<path fill-rule="evenodd" clip-rule="evenodd" d="M868.523 319.168L845.753 345.25L844.974 344.569L867.744 318.487L868.523 319.168Z" fill="white"/>
<path fill-rule="evenodd" clip-rule="evenodd" d="M849.609 350.704L974.637 257.14L975.257 257.968L850.229 351.532L849.609 350.704Z" fill="white"/>
<path fill-rule="evenodd" clip-rule="evenodd" d="M876.923 321.399L864.089 395.505L863.069 395.329L875.903 321.223L876.923 321.399Z" fill="white"/>
<path fill-rule="evenodd" clip-rule="evenodd" d="M1019.06 427.776L848.901 361.536L849.277 360.571L1019.43 426.811L1019.06 427.776Z" fill="white"/>
<path fill-rule="evenodd" clip-rule="evenodd" d="M943.877 358.492L822.989 500.494L822.201 499.823L943.089 357.821L943.877 358.492Z" fill="white"/>
<path fill-rule="evenodd" clip-rule="evenodd" d="M1022.17 422.673L962.555 356.433L963.324 355.74L1022.94 421.98L1022.17 422.673Z" fill="white"/>
<path fill-rule="evenodd" clip-rule="evenodd" d="M1130.98 260.139L1004.29 249.375L1004.38 248.344L1131.07 259.108L1130.98 260.139Z" fill="white"/>
<path fill-rule="evenodd" clip-rule="evenodd" d="M998.025 236.854V199.18H999.06V236.854H998.025Z" fill="white"/>
<path fill-rule="evenodd" clip-rule="evenodd" d="M1029.5 420.377L992.244 265.127L993.251 264.886L1030.51 420.136L1029.5 420.377Z" fill="white"/>
<path fill-rule="evenodd" clip-rule="evenodd" d="M1136.43 277.295L1042.86 420.539L1042 419.973L1135.56 276.729L1136.43 277.295Z" fill="white"/>
<path fill-rule="evenodd" clip-rule="evenodd" d="M1020.54 289.947L892.197 302.781L892.094 301.751L1020.43 288.917L1020.54 289.947Z" fill="white"/>
<path fill-rule="evenodd" clip-rule="evenodd" d="M922.962 279.982L886.53 293.644L886.167 292.675L922.599 279.013L922.962 279.982Z" fill="white"/>
<path fill-rule="evenodd" clip-rule="evenodd" d="M1025.77 266.76L1011.28 192.241L1012.3 192.043L1026.79 266.563L1025.77 266.76Z" fill="white"/>
<path fill-rule="evenodd" clip-rule="evenodd" d="M1034.25 296.47V417.772H1033.21V296.47H1034.25Z" fill="white"/>
<path fill-rule="evenodd" clip-rule="evenodd" d="M1225.77 429.582L1155.81 277.23L1156.75 276.798L1226.71 429.15L1225.77 429.582Z" fill="white"/>
<path fill-rule="evenodd" clip-rule="evenodd" d="M1139.66 249.078L1061.42 79.3386L1062.36 78.9053L1140.6 248.645L1139.66 249.078Z" fill="white"/>
<path fill-rule="evenodd" clip-rule="evenodd" d="M1227.61 176.428L1071.12 73.3419L1071.69 72.4775L1228.18 175.563L1227.61 176.428Z" fill="white"/>
<path fill-rule="evenodd" clip-rule="evenodd" d="M1233.12 115.215L1071.24 60.9814L1071.57 60L1233.45 114.234L1233.12 115.215Z" fill="white"/>
<path fill-rule="evenodd" clip-rule="evenodd" d="M1155.03 251.87L1241.56 132.225L1242.39 132.831L1155.87 252.477L1155.03 251.87Z" fill="white"/>
<path fill-rule="evenodd" clip-rule="evenodd" d="M1158.43 254.674L1230.46 193.816L1231.13 194.607L1159.1 255.465L1158.43 254.674Z" fill="white"/>
<path fill-rule="evenodd" clip-rule="evenodd" d="M1245.6 168.093L1248.09 134.145L1249.12 134.22L1246.63 168.168L1245.6 168.093Z" fill="white"/>
<path fill-rule="evenodd" clip-rule="evenodd" d="M1419.85 171.11L1264.6 125.156L1264.89 124.164L1420.14 170.118L1419.85 171.11Z" fill="white"/>
<path fill-rule="evenodd" clip-rule="evenodd" d="M1419.19 176.514L1257.73 183.552L1257.69 182.517L1419.15 175.479L1419.19 176.514Z" fill="white"/>
<path fill-rule="evenodd" clip-rule="evenodd" d="M1382.24 331.915L1427.78 190.327L1428.77 190.644L1383.23 332.232L1382.24 331.915Z" fill="white"/>
<path fill-rule="evenodd" clip-rule="evenodd" d="M1369.09 332.413L1251.1 196.207L1251.89 195.529L1369.88 331.735L1369.09 332.413Z" fill="white"/>
<path fill-rule="evenodd" clip-rule="evenodd" d="M1363.09 340.839L1161.48 265.491L1161.84 264.521L1363.46 339.869L1363.09 340.839Z" fill="white"/>
<path fill-rule="evenodd" clip-rule="evenodd" d="M1363.16 353.613L1247.66 435.171L1247.06 434.325L1362.56 352.768L1363.16 353.613Z" fill="white"/>
<path fill-rule="evenodd" clip-rule="evenodd" d="M1270.12 491.159L1368.24 357.023L1369.08 357.634L1270.96 491.77L1270.12 491.159Z" fill="white"/>
<path fill-rule="evenodd" clip-rule="evenodd" d="M1453.88 529.328L1386.39 358.346L1387.36 357.966L1454.84 528.948L1453.88 529.328Z" fill="white"/>
<path fill-rule="evenodd" clip-rule="evenodd" d="M1444.9 402.423L1391.91 353.571L1392.61 352.81L1445.6 401.662L1444.9 402.423Z" fill="white"/>
<path fill-rule="evenodd" clip-rule="evenodd" d="M1455.08 395.469L1434.38 192.196L1435.41 192.091L1456.11 395.365L1455.08 395.469Z" fill="white"/>
<path fill-rule="evenodd" clip-rule="evenodd" d="M1477.22 326.373L1394.42 340.863L1394.24 339.844L1477.04 325.354L1477.22 326.373Z" fill="white"/>
<path fill-rule="evenodd" clip-rule="evenodd" d="M1477.53 225.174L1389.76 333.642L1388.96 332.991L1476.72 224.523L1477.53 225.174Z" fill="white"/>
<path fill-rule="evenodd" clip-rule="evenodd" d="M1477.19 80.877L1259.84 107.373L1259.71 106.346L1477.06 79.8496L1477.19 80.877Z" fill="white"/>
<path d="M34.7548 231.059H21.9209V232.715H34.7548V231.059Z" fill="white"/>
<path fill-rule="evenodd" clip-rule="evenodd" d="M34.7548 231.059H21.9209V232.715H34.7548V231.059Z" fill="white"/>
<path d="M29.3689 236.026H27.7129V243.064H29.3689V236.026Z" fill="white"/>
<path fill-rule="evenodd" clip-rule="evenodd" d="M27.7129 236.026H29.3689V243.064H27.7129V236.026Z" fill="white"/>
<path d="M224.363 286.533H211.529V288.189H224.363V286.533Z" fill="white"/>
<path fill-rule="evenodd" clip-rule="evenodd" d="M224.363 286.533H211.529V288.189H224.363V286.533Z" fill="white"/>
<path d="M218.983 291.503H217.327V298.541H218.983V291.503Z" fill="white"/>
<path fill-rule="evenodd" clip-rule="evenodd" d="M217.327 291.503H218.983V298.541H217.327V291.503Z" fill="white"/>
<path d="M220.224 351.118H207.39V352.774H220.224V351.118Z" fill="white"/>
<path fill-rule="evenodd" clip-rule="evenodd" d="M220.224 351.118H207.39V352.774H220.224V351.118Z" fill="white"/>
<path d="M214.842 356.086H213.187V363.124H214.842V356.086Z" fill="white"/>
<path fill-rule="evenodd" clip-rule="evenodd" d="M213.187 356.086H214.842V363.124H213.187V356.086Z" fill="white"/>
<path d="M839.566 352.36H826.732V354.016H839.566V352.36Z" fill="white"/>
<path fill-rule="evenodd" clip-rule="evenodd" d="M839.566 352.36H826.732V354.016H839.566V352.36Z" fill="white"/>
<path d="M834.185 357.33H832.529V364.368H834.185V357.33Z" fill="white"/>
<path fill-rule="evenodd" clip-rule="evenodd" d="M832.529 357.33H834.185V364.368H832.529V357.33Z" fill="white"/>
<path d="M735.652 356.086H722.818V357.742H735.652V356.086Z" fill="white"/>
<path fill-rule="evenodd" clip-rule="evenodd" d="M735.652 356.086H722.818V357.742H735.652V356.086Z" fill="white"/>
<path d="M729.857 361.056H728.201V368.094H729.857V361.056Z" fill="white"/>
<path fill-rule="evenodd" clip-rule="evenodd" d="M728.201 361.056H729.857V368.094H728.201V361.056Z" fill="white"/>
<path d="M603.588 347.807H590.754V349.463H603.588V347.807Z" fill="white"/>
<path fill-rule="evenodd" clip-rule="evenodd" d="M603.588 347.807H590.754V349.463H603.588V347.807Z" fill="white"/>
<path d="M598.205 352.775H596.549V359.813H598.205V352.775Z" fill="white"/>
<path fill-rule="evenodd" clip-rule="evenodd" d="M596.549 352.775H598.205V359.813H596.549V352.775Z" fill="white"/>
<path d="M411.076 343.666H398.242V345.322H411.076V343.666Z" fill="white"/>
<path fill-rule="evenodd" clip-rule="evenodd" d="M411.076 343.666H398.242V345.322H411.076V343.666Z" fill="white"/>
<path d="M405.283 348.634H403.627V355.672H405.283V348.634Z" fill="white"/>
<path fill-rule="evenodd" clip-rule="evenodd" d="M403.627 348.634H405.283V355.672H403.627V348.634Z" fill="white"/>
<path d="M577.094 310.548H564.26V312.204H577.094V310.548Z" fill="white"/>
<path fill-rule="evenodd" clip-rule="evenodd" d="M577.094 310.548H564.26V312.204H577.094V310.548Z" fill="white"/>
<path d="M571.709 315.515H570.053V322.553H571.709V315.515Z" fill="white"/>
<path fill-rule="evenodd" clip-rule="evenodd" d="M570.053 315.515H571.709V322.553H570.053V315.515Z" fill="white"/>
<path d="M646.644 265.007H633.81V266.663H646.644V265.007Z" fill="white"/>
<path fill-rule="evenodd" clip-rule="evenodd" d="M646.644 265.007H633.81V266.663H646.644V265.007Z" fill="white"/>
<path d="M641.264 269.975H639.607V277.013H641.264V269.975Z" fill="white"/>
<path fill-rule="evenodd" clip-rule="evenodd" d="M639.607 269.975H641.264V277.013H639.607V269.975Z" fill="white"/>
<path d="M729.03 281.151H716.196V282.807H729.03V281.151Z" fill="white"/>
<path fill-rule="evenodd" clip-rule="evenodd" d="M729.03 281.151H716.196V282.807H729.03V281.151Z" fill="white"/>
<path d="M723.647 285.706H721.991V292.744H723.647V285.706Z" fill="white"/>
<path fill-rule="evenodd" clip-rule="evenodd" d="M721.991 285.706H723.647V292.744H721.991V285.706Z" fill="white"/>
<path d="M799.409 103.133H786.575V104.789H799.409V103.133Z" fill="white"/>
<path fill-rule="evenodd" clip-rule="evenodd" d="M799.409 103.133H786.575V104.789H799.409V103.133Z" fill="white"/>
<path d="M794.027 108.101H792.371V115.139H794.027V108.101Z" fill="white"/>
<path fill-rule="evenodd" clip-rule="evenodd" d="M792.371 108.101H794.027V115.139H792.371V108.101Z" fill="white"/>
<path d="M883.037 301.023H870.203V302.679H883.037V301.023Z" fill="white"/>
<path fill-rule="evenodd" clip-rule="evenodd" d="M883.037 301.023H870.203V302.679H883.037V301.023Z" fill="white"/>
<path d="M877.242 305.992H875.586V313.03H877.242V305.992Z" fill="white"/>
<path fill-rule="evenodd" clip-rule="evenodd" d="M875.586 305.992H877.242V313.03H875.586V305.992Z" fill="white"/>
<path d="M938.1 261.281H925.266V262.937H938.1V261.281Z" fill="white"/>
<path fill-rule="evenodd" clip-rule="evenodd" d="M938.1 261.281H925.266V262.937H938.1V261.281Z" fill="white"/>
<path d="M932.718 266.248H931.062V273.286H932.718V266.248Z" fill="white"/>
<path fill-rule="evenodd" clip-rule="evenodd" d="M931.062 266.248H932.718V273.286H931.062V266.248Z" fill="white"/>
<path d="M959.629 339.941H946.795V341.597H959.629V339.941Z" fill="white"/>
<path fill-rule="evenodd" clip-rule="evenodd" d="M959.629 339.941H946.795V341.597H959.629V339.941Z" fill="white"/>
<path d="M953.833 344.495H952.177V351.533H953.833V344.495Z" fill="white"/>
<path fill-rule="evenodd" clip-rule="evenodd" d="M952.177 344.495H953.833V351.533H952.177V344.495Z" fill="white"/>
<path d="M994.818 244.723H981.984V246.379H994.818V244.723Z" fill="white"/>
<path fill-rule="evenodd" clip-rule="evenodd" d="M994.818 244.723H981.984V246.379H994.818V244.723Z" fill="white"/>
<path d="M989.434 249.275H987.778V256.313H989.434V249.275Z" fill="white"/>
<path fill-rule="evenodd" clip-rule="evenodd" d="M987.778 249.275H989.434V256.313H987.778V249.275Z" fill="white"/>
<path d="M1001.44 179.308H988.607V180.964H1001.44V179.308Z" fill="white"/>
<path fill-rule="evenodd" clip-rule="evenodd" d="M1001.44 179.308H988.607V180.964H1001.44V179.308Z" fill="white"/>
<path d="M995.646 184.276H993.99V191.314H995.646V184.276Z" fill="white"/>
<path fill-rule="evenodd" clip-rule="evenodd" d="M993.99 184.276H995.646V191.314H993.99V184.276Z" fill="white"/>
<path d="M1039.12 276.185H1026.28V277.841H1039.12V276.185Z" fill="white"/>
<path fill-rule="evenodd" clip-rule="evenodd" d="M1039.12 276.185H1026.28V277.841H1039.12V276.185Z" fill="white"/>
<path d="M1033.73 281.151H1032.08V288.189H1033.73V281.151Z" fill="white"/>
<path fill-rule="evenodd" clip-rule="evenodd" d="M1032.08 281.151H1033.73V288.189H1032.08V281.151Z" fill="white"/>
<path d="M1153.38 258.796H1140.54V260.452H1153.38V258.796Z" fill="white"/>
<path fill-rule="evenodd" clip-rule="evenodd" d="M1153.38 258.796H1140.54V260.452H1153.38V258.796Z" fill="white"/>
<path d="M1148 263.764H1146.34V270.802H1148V263.764Z" fill="white"/>
<path fill-rule="evenodd" clip-rule="evenodd" d="M1146.34 263.764H1148V270.802H1146.34V263.764Z" fill="white"/>
<path d="M1249.01 178.48H1236.18V180.136H1249.01V178.48Z" fill="white"/>
<path fill-rule="evenodd" clip-rule="evenodd" d="M1249.01 178.48H1236.18V180.136H1249.01V178.48Z" fill="white"/>
<path d="M1243.22 183.45H1241.56V190.488H1243.22V183.45Z" fill="white"/>
<path fill-rule="evenodd" clip-rule="evenodd" d="M1241.56 183.45H1243.22V190.488H1241.56V183.45Z" fill="white"/>
<path d="M1439.87 171.029H1427.03V172.685H1439.87V171.029Z" fill="white"/>
<path fill-rule="evenodd" clip-rule="evenodd" d="M1439.87 171.029H1427.03V172.685H1439.87V171.029Z" fill="white"/>
<path d="M1434.48 175.996H1432.83V183.034H1434.48V175.996Z" fill="white"/>
<path fill-rule="evenodd" clip-rule="evenodd" d="M1432.83 175.996H1434.48V183.034H1432.83V175.996Z" fill="white"/>
<path d="M1255.22 112.24H1242.39V113.896H1255.22V112.24Z" fill="white"/>
<path fill-rule="evenodd" clip-rule="evenodd" d="M1255.22 112.24H1242.39V113.896H1255.22V112.24Z" fill="white"/>
<path d="M1249.84 117.209H1248.19V124.247H1249.84V117.209Z" fill="white"/>
<path fill-rule="evenodd" clip-rule="evenodd" d="M1248.19 117.209H1249.84V124.247H1248.19V117.209Z" fill="white"/>
<path d="M1064.37 60.0771H1051.54V61.7331H1064.37V60.0771Z" fill="white"/>
<path fill-rule="evenodd" clip-rule="evenodd" d="M1064.37 60.0771H1051.54V61.7331H1064.37V60.0771Z" fill="white"/>
<path d="M1058.99 65.0439H1057.33V72.0819H1058.99V65.0439Z" fill="white"/>
<path fill-rule="evenodd" clip-rule="evenodd" d="M1057.33 65.0439H1058.99V72.0819H1057.33V65.0439Z" fill="white"/>
<path d="M1384.39 340.768H1371.56V342.424H1384.39V340.768Z" fill="white"/>
<path fill-rule="evenodd" clip-rule="evenodd" d="M1384.39 340.768H1371.56V342.424H1384.39V340.768Z" fill="white"/>
<path d="M1379.01 345.735H1377.35V352.773H1379.01V345.735Z" fill="white"/>
<path fill-rule="evenodd" clip-rule="evenodd" d="M1377.35 345.735H1379.01V352.773H1377.35V345.735Z" fill="white"/>
</g>
</g>
</svg>
