<svg width="99" height="33" viewBox="0 0 99 33" fill="none" xmlns="http://www.w3.org/2000/svg">
<path d="M98.9147 0H65.9434V4.12869H98.9147V0Z" fill="white"/>
<path d="M84.492 14.4492H80.3633V32.9993H84.492V14.4492Z" fill="white"/>
<path fill-rule="evenodd" clip-rule="evenodd" d="M6.28026 14.2482V14.7716C6.28026 15.8183 5.84413 16.7487 5.1754 17.4465C4.47759 18.1443 3.54719 18.5513 2.50047 18.5513H0V16.487H2.50047C2.96568 16.487 3.40181 16.2835 3.72164 15.9927C4.04146 15.6729 4.21592 15.2658 4.21592 14.7716V11.3407V10.9918V6.19434H6.28026V10.9918V11.3407C6.28026 11.6314 6.39656 11.8931 6.57101 12.0675C6.74547 12.242 7.00714 12.3583 7.2979 12.3583H8.31553H36.0534C36.3441 12.3583 36.6058 12.242 36.7802 12.0675C36.9547 11.8931 37.071 11.6314 37.071 11.3407V6.19434H39.1353V11.3407C39.1353 12.1838 38.7864 12.9689 38.234 13.5213C37.6816 14.0737 36.8965 14.4226 36.0534 14.4226H8.31553H7.32697C6.94899 14.4517 6.60009 14.3645 6.28026 14.2482Z" fill="white"/>
<path fill-rule="evenodd" clip-rule="evenodd" d="M49.4578 4.12744H47.4225V12.3848H41.2295V14.4492H47.4225H49.4578V4.12744Z" fill="white"/>
<path fill-rule="evenodd" clip-rule="evenodd" d="M39.1643 25.4123V29.8899C39.1643 30.7331 38.8154 31.5181 38.263 32.0705C37.7105 32.623 36.9255 32.9719 36.0823 32.9719H31.2849H24.1905C23.4346 32.9719 22.7077 32.7393 22.1262 32.3613C21.7773 32.1287 21.4575 31.8379 21.1958 31.5181C20.8759 31.9542 20.4689 32.3031 20.0037 32.5358C19.4513 32.8265 18.8407 32.9719 18.201 32.9719H12.415V28.5234H14.4794V30.9366H18.201C18.5208 30.9366 18.7825 30.8785 19.0151 30.7331C19.2477 30.6168 19.4803 30.4133 19.6257 30.1516C19.8002 29.8899 19.8874 29.6282 19.9165 29.3665C19.9455 29.1049 19.8874 28.8141 19.7711 28.5524L16.9799 22.1268L18.8698 21.3127L21.661 27.7383L22.5914 29.919C22.7368 30.2388 22.9403 30.5005 23.231 30.6749C23.4927 30.8494 23.8126 30.9366 24.1905 30.9366H31.2849H36.0823C36.3731 30.9366 36.6348 30.8203 36.8092 30.6459C36.9837 30.4714 37.1 30.2097 37.1 29.919V25.4414H39.1643V25.4123ZM49.457 18.5505H47.3926V30.9075H41.1996V32.9719H47.3926H49.457V18.5505ZM39.1643 20.6149H37.1V22.6792H39.1643V20.6149Z" fill="white"/>
<path d="M49.0778 0H42.8848V1.88989H49.0778V0Z" fill="white"/>
<path d="M38.7575 0H32.5645V1.88989H38.7575V0Z" fill="white"/>
</svg>
