<svg width="100" height="33" viewBox="0 0 100 33" fill="none" xmlns="http://www.w3.org/2000/svg">
<path d="M99.4577 0H66.4863V4.12869H99.4577V0Z" fill="#009B87"/>
<path d="M85.0349 14.4492H80.9062V32.9993H85.0349V14.4492Z" fill="#009B87"/>
<path fill-rule="evenodd" clip-rule="evenodd" d="M6.82323 14.2472V14.7706C6.82323 15.8173 6.3871 16.7477 5.71837 17.4455C5.02056 18.1433 4.09015 18.5504 3.04344 18.5504H0.542969V16.486H3.04344C3.50865 16.486 3.94478 16.2825 4.26461 15.9917C4.58443 15.6719 4.75889 15.2649 4.75889 14.7706V11.3397V10.9908V6.19336H6.82323V10.9908V11.3397C6.82323 11.6304 6.93953 11.8921 7.11398 12.0666C7.28843 12.241 7.55011 12.3573 7.84087 12.3573H8.8585H36.5963C36.8871 12.3573 37.1488 12.241 37.3232 12.0666C37.4977 11.8921 37.614 11.6304 37.614 11.3397V6.19336H39.6783V11.3397C39.6783 12.1829 39.3294 12.9679 38.777 13.5203C38.2246 14.0728 37.4395 14.4217 36.5963 14.4217H8.8585H7.86994C7.49196 14.4507 7.14306 14.3635 6.82323 14.2472Z" fill="#878787"/>
<path fill-rule="evenodd" clip-rule="evenodd" d="M50.0008 4.12695H47.9655V12.3843H41.7725V14.4487H47.9655H50.0008V4.12695Z" fill="#878787"/>
<path fill-rule="evenodd" clip-rule="evenodd" d="M39.7073 25.4125V29.8901C39.7073 30.7333 39.3584 31.5184 38.8059 32.0708C38.2535 32.6232 37.4685 32.9721 36.6253 32.9721H31.8279H24.7335C23.9775 32.9721 23.2507 32.7395 22.6692 32.3615C22.3203 32.1289 22.0004 31.8382 21.7387 31.5184C21.4189 31.9545 21.0119 32.3034 20.5467 32.536C19.9942 32.8267 19.3836 32.9721 18.744 32.9721H12.958V28.5236H15.0224V30.9369H18.744C19.0638 30.9369 19.3255 30.8787 19.5581 30.7333C19.7907 30.617 20.0233 30.4135 20.1687 30.1518C20.3431 29.8901 20.4304 29.6285 20.4594 29.3668C20.4885 29.1051 20.4304 28.8144 20.3141 28.5527L17.5228 22.127L19.4127 21.3129L22.204 27.7386L23.1344 29.9192C23.2797 30.239 23.4833 30.5007 23.774 30.6752C24.0357 30.8496 24.3555 30.9369 24.7335 30.9369H31.8279H36.6253C36.916 30.9369 37.1777 30.8206 37.3522 30.6461C37.5266 30.4716 37.6429 30.21 37.6429 29.9192V25.4416H39.7073V25.4125ZM49.9999 18.5508H47.9356V30.9078H41.7425V32.9721H47.9356H49.9999V18.5508ZM39.7073 20.6151H37.6429V22.6795H39.7073V20.6151Z" fill="#878787"/>
<path d="M49.6208 0H43.4277V1.88989H49.6208V0Z" fill="#878787"/>
<path d="M39.3005 0H33.1074V1.88989H39.3005V0Z" fill="#878787"/>
</svg>
