<svg width="72" height="72" viewBox="0 0 72 72" fill="none" xmlns="http://www.w3.org/2000/svg">
<path d="M72 36C72 16.1177 55.8823 0 36 0C16.1177 0 0 16.1177 0 36C0 55.8823 16.1177 72 36 72C55.8823 72 72 55.8823 72 36Z" fill="#009191"/>
<path d="M49.6758 24.2422L37.3928 19.2722C36.4977 18.9099 35.4969 18.9099 34.6018 19.2722L22.3218 24.2422C21.5719 24.5465 20.9417 25.087 20.5266 25.7817C20.1116 26.4765 19.9343 27.2876 20.0218 28.0922C21.1948 38.8922 28.5018 53.5212 35.9998 53.5212C43.4978 53.5212 50.8028 38.8882 51.9758 28.0922C52.0641 27.2875 51.8872 26.476 51.4721 25.7811C51.0569 25.0861 50.4262 24.5458 49.6758 24.2422ZM48.0468 29.9002C47.2378 38.1242 42.1648 49.6832 35.9978 49.6832C29.8308 49.6832 24.7578 38.1292 23.9488 29.9002C23.8882 29.2888 24.0302 28.6745 24.3532 28.1519C24.6761 27.6293 25.1619 27.2274 25.7358 27.0082L34.9978 23.4692C35.6417 23.2229 36.3539 23.2229 36.9978 23.4692L46.2588 27.0082C46.8329 27.2272 47.3189 27.6291 47.642 28.1517C47.9651 28.6743 48.1074 29.2887 48.0468 29.9002Z" fill="white"/>
<path d="M26.603 29.2822C26.5272 29.3117 26.4631 29.3652 26.4205 29.4346C26.3778 29.5039 26.3591 29.5853 26.367 29.6662C26.842 33.8809 28.1071 37.9682 30.096 41.7142C31.996 45.1852 34.196 47.2572 35.996 47.2572V25.7192C35.9505 25.7193 35.9054 25.7278 35.863 25.7442L26.603 29.2822Z" fill="white"/>
</svg>
