<svg width="71" height="61" viewBox="0 0 71 61" fill="none" xmlns="http://www.w3.org/2000/svg">
<path fill-rule="evenodd" clip-rule="evenodd" d="M12.837 0.298722L0.050146 27.1556C0.00312284 27.2551 -0.0113147 27.3669 0.00888938 27.475C0.0290934 27.5832 0.0829089 27.6822 0.162673 27.758L34.6947 60.8533C34.7928 60.9471 34.9233 60.9995 35.059 60.9995C35.1948 60.9995 35.3253 60.9471 35.4234 60.8533L69.9554 27.7649C70.0364 27.689 70.091 27.5892 70.1113 27.4801C70.1315 27.371 70.1163 27.2582 70.0679 27.1583L57.281 0.300095C57.2399 0.209692 57.1734 0.133177 57.0896 0.0798316C57.0058 0.0264863 56.9083 -0.0013966 56.809 -0.000434322H13.3077C13.2081 -0.00187661 13.1102 0.0256223 13.026 0.0787252C12.9417 0.131828 12.8746 0.208252 12.8329 0.298722H12.837Z" fill="#009B87"/>
<path fill-rule="evenodd" clip-rule="evenodd" d="M39.4966 29.9138C39.2482 29.9331 37.9679 30.0085 35.1053 30.0085C32.8328 30.0085 31.2204 29.9413 30.6537 29.9138C21.8711 29.5269 15.3157 27.9927 15.3157 26.1689C15.3157 24.3451 21.8752 22.8178 30.6578 22.4185V28.3906C31.2328 28.4332 32.8768 28.5278 35.1492 28.5278C37.876 28.5278 39.2414 28.4153 39.4884 28.3906V22.4226C48.2518 22.8137 54.792 24.3438 54.792 26.1689C54.792 27.994 48.2531 29.5227 39.4884 29.9111L39.4966 29.9138ZM39.4966 21.805V16.4532H51.7319V8.31006H18.428V16.46H30.6564V21.8023C20.717 22.2593 13.2422 24.2285 13.2422 26.5874C13.2422 28.9464 20.7184 30.9142 30.6564 31.3726V48.4986H39.4939V31.3657C49.41 30.9101 56.8724 28.9423 56.8724 26.5861C56.8724 24.2299 49.4168 22.2689 39.4939 21.8023L39.4966 21.805Z" fill="white"/>
</svg>
